<svg xmlns="http://www.w3.org/2000/svg" class="ionicon" viewBox="0 0 512 512">
    <path d="m 77.802,108.92 31.113,-31.113 65.054,65.054 -31.113,31.112 z" />
    <path d="m 338.029,369.14 31.112,-31.113 65.054,65.054 -31.112,31.112 z" />
    <path d="m 26,234 h 92 v 44 H 26 Z" />
    <path d="m 394,234 h 92 v 44 h -92 z" />
    <path d="m 77.815,403.074 65.054,-65.054 31.113,31.113 -65.054,65.054 z" />
    <path d="m 338.025,142.857 65.054,-65.054 31.113,31.113 -65.054,65.054 z" />
    <path d="m 234,394 h 44 v 92 h -44 z" />
    <path d="m 234,26 h 44 v 92 h -44 z" />
    <path d="m 208.92518,197.1542 c 0,-15.0268 2.20848,-30.21295 7.84579,-43.1542 C 179.29052,170.31544 154,208.59277 154,252.07483 154,310.57456 201.42544,358 259.92517,358 303.40723,358 341.68455,332.70947 358,295.22903 c -12.94124,5.63732 -28.14106,7.84581 -43.1542,7.84581 -58.49973,0 -105.92062,-47.4209 -105.92062,-105.92064 z" />
</svg>